<?xml version="1.0" encoding="utf-8"?>
<!-- Generator: Adobe Illustrator 20.0.0, SVG Export Plug-In . SVG Version: 6.00 Build 0)  -->
<svg version="1.1" id="Слой_1" xmlns="http://www.w3.org/2000/svg" xmlns:xlink="http://www.w3.org/1999/xlink" x="0px" y="0px"
	 viewBox="0 0 25 25" enable-background="new 0 0 25 25" xml:space="preserve">
<path fill="#F5F5F5" d="M12.5,1C6.2,1,1,6.2,1,12.5C1,18.8,6.2,24,12.5,24C18.8,24,24,18.8,24,12.5C24,6.2,18.8,1,12.5,1z"/>
<g>
	<g>
		<path fill="#CDCFD1" d="M12.5,0C5.6,0,0,5.6,0,12.5C0,19.4,5.6,25,12.5,25S25,19.4,25,12.5C25,5.6,19.4,0,12.5,0z M12.5,24
			C6.2,24,1,18.8,1,12.5S6.2,1,12.5,1S24,6.2,24,12.5S18.8,24,12.5,24z"/>
	</g>
	<polygon fill="#576472" points="12.5,7.4 6.1,13.8 7.6,15.2 12.5,10.3 17.5,15.2 18.9,13.8 	"/>
</g>
</svg>
