<svg xmlns="http://www.w3.org/2000/svg" viewBox="0 0 100 108"><path fill="#5EB346" d="M49.8 4.6c2.8 0 5.4.5 7.2 1.3.1 0 7.4 3.3 15.3 8 8 4.7 14.4 9.5 14.5 9.5 3.4 2.6 6.8 8.6 7.3 12.9 0 .1.9 8.2.9 17.6 0 9.4-.8 17.5-.9 17.6-.5 4.3-3.9 10.3-7.3 12.9-.1 0-6.5 4.8-14.5 9.5s-15.3 8-15.3 8c-1.8.8-4.4 1.3-7.2 1.3s-5.4-.5-7.2-1.3c-.1 0-7.4-3.3-15.3-8-8-4.7-14.4-9.5-14.5-9.5-3.4-2.6-6.8-8.6-7.3-12.9 0-.1-.9-8.2-.9-17.6 0-9.4.8-17.5.9-17.6.4-4.3 3.8-10.3 7.3-12.9.1 0 6.5-4.8 14.5-9.5s15.3-8 15.3-8c1.8-.8 4.5-1.3 7.2-1.3m0-4.6c-3.3 0-6.6.6-9.1 1.7 0 0-7.5 3.4-15.8 8.3-8.3 4.8-14.9 9.8-14.9 9.8C5.6 23.1 1.5 30.3.9 35.9c0 0-.9 8.3-.9 18.1 0 9.7.9 18 .9 18 .6 5.6 4.7 12.8 9.1 16.1 0 0 6.6 4.9 14.9 9.8s15.8 8.3 15.8 8.3c2.5 1.1 5.8 1.7 9.1 1.7s6.6-.6 9.1-1.7c0 0 7.5-3.4 15.8-8.3s14.9-9.8 14.9-9.8c4.4-3.3 8.5-10.5 9.1-16.1 0 0 .9-8.3.9-18.1s-.9-18.1-.9-18.1c-.6-5.6-4.7-12.8-9.1-16.1 0 0-6.6-4.9-14.9-9.8S58.9 1.6 58.9 1.6C56.4.6 53.1 0 49.8 0"/><path fill="#5EB346" d="M59 82.7c-.5 0-.9-.1-1.3-.3L33.5 71c-.8-.4-1.3-1-1.6-1.8-.3-.8-.2-1.6.1-2.4l17.6-37.2c.7-1.6 2.6-2.2 4.2-1.5L78 39.5c.8.4 1.3 1 1.6 1.8.3.8.2 1.6-.1 2.4L61.9 80.9c-.6 1.2-1.7 1.8-2.9 1.8zm.4-3.9zM36 67.7l22.6 10.7 16.9-35.7-22.6-10.6L36 67.7z"/><path fill="#5EB346" d="M51 70.7c-.8 0-1.6-.2-2.3-.5-1.3-.6-2.3-1.7-2.8-3.1-.5-1.4-.4-2.8.2-4.2.6-1.3 1.7-2.3 3.1-2.8 1.4-.5 2.8-.4 4.2.2s2.3 1.7 2.8 3.1.4 2.8-.2 4.2c-1 1.9-2.9 3.1-5 3.1zm-1.3-6.1c-.2.3-.2.7-.1 1.1s.4.7.7.8c.7.3 1.6 0 1.9-.7.3-.7 0-1.6-.7-1.9-.3-.2-.7-.2-1.1-.1s-.5.5-.7.8zm10.4-6.7c-.3 0-.6-.1-.9-.2-.7-.3-1.1-1.1-1.1-1.8 0-.3.1-.6.2-.9l5.6-11.8c.5-1 1.7-1.4 2.7-1 .7.3 1.1 1.1 1.1 1.8 0 .3-.1.6-.2.9l-5.6 11.8c-.4.8-1.1 1.2-1.8 1.2zm-7.6-3.5c-.3 0-.6-.1-.9-.2-.7-.3-1.1-1.1-1.1-1.8 0-.3.1-.6.2-.9l5.6-11.8c.5-1 1.7-1.4 2.7-1 .7.3 1.1 1.1 1.1 1.8 0 .3-.1.6-.2.9l-5.6 11.8c-.3.8-1 1.2-1.8 1.2zM42.8 75.4l-5.1 1.1-.8-3.9-3.4-1.6c-.6-.3-1.1-.8-1.4-1.3l1.7 8.4c.3 1.5 1.6 2.5 3.1 2.5.2 0 .4 0 .6-.1l11.2-2.3-5.9-2.8zM31.8 67.4c0-.2.1-.4.2-.5l2.5-5.3-4.9-23.7 18-3.7 2.1-4.5v-.1l-21.8 4.5c-.8.2-1.5.7-2 1.4s-.6 1.5-.5 2.4L31.6 68c.2-.3.2-.5.2-.6z"/><path fill="#5EB346" d="M39 52.1l2.8-6-1-5c-.2-1.1-1.3-1.8-2.4-1.6-.9.2-1.6 1-1.6 2v.4L39 52.1z"/></svg>