<svg xmlns="http://www.w3.org/2000/svg" viewBox="0 0 101 110"><g fill="#287DB2"><path d="M66.6 49.3h-5.7c-.8 0-1.6.4-2.1 1-.4.5-.6 1.1-.6 1.8v15.8c-1.1.2-1.9 1.1-1.9 2.3 0 1.1.8 2.1 1.9 2.3v.8c0 1.3 1 2.3 2.3 2.3 1.3 0 2.3-1 2.3-2.3v-.7h4.8c1.3 0 2.3-1 2.3-2.3 0-1.3-1-2.3-2.3-2.3h-4.8v-1.5h3.9c4.7 0 8.5-3.8 8.5-8.6s-3.9-8.6-8.6-8.6zm0 12.5h-3.9V54h3.9c2.1 0 3.9 1.8 3.9 3.9 0 2.1-1.7 3.9-3.9 3.9z"/><path d="M99.3 36.7c-.6-5.6-4.7-12.9-9.1-16.2 0 0-6.6-5-14.9-9.9S59.5 2.3 59.5 2.3C57 1.2 53.7.6 50.4.6s-6.6.6-9.1 1.7c0 0-7.5 3.4-15.8 8.3s-14.9 9.9-14.9 9.9c-4.4 3.3-8.5 10.6-9.1 16.2 0 0-.9 8.4-.9 18.2 0 9.9.9 18.2.9 18.2.6 5.6 4.7 12.9 9.1 16.2 0 0 6.6 5 14.9 9.9s15.8 8.3 15.8 8.3c2.5 1.1 5.8 1.7 9.1 1.7s6.6-.6 9.1-1.7c0 0 7.5-3.4 15.8-8.3s14.9-9.9 14.9-9.9c4.4-3.3 8.5-10.6 9.1-16.2 0 0 .9-8.4.9-18.2 0-9.8-.9-18.2-.9-18.2zm-4.6 36c-.5 4.4-3.9 10.4-7.3 13-.1 0-6.5 4.9-14.5 9.6-8 4.7-15.3 8.1-15.3 8.1-1.8.8-4.4 1.3-7.2 1.3s-5.4-.5-7.2-1.3c-.1 0-7.4-3.4-15.3-8.1-8-4.7-14.4-9.6-14.5-9.6-3.4-2.6-6.8-8.6-7.3-13 0-.1-.9-8.2-.9-17.8 0-9.4.8-17.6.8-17.7.5-4.4 3.9-10.4 7.3-13 .1 0 6.5-4.9 14.5-9.6 8-4.7 15.3-8.1 15.3-8.1 1.8-.8 4.4-1.3 7.2-1.3s5.4.5 7.2 1.3c.1 0 7.4 3.4 15.3 8.1 8 4.7 14.4 9.6 14.5 9.6 3.4 2.6 6.8 8.7 7.3 13 0 .1.9 8.3.9 17.8.1 9.5-.8 17.6-.8 17.7z"/><path d="M75.6 41.4V29.5c0-1.3-1-2.3-2.3-2.3h-48c-1.3 0-2.3 1-2.3 2.3v48.6c0 1.3 1 2.3 2.3 2.3h26c3.7 2.5 8.1 4 12.8 4C76.7 84.4 87 74.1 87 61.3c.1-8.4-4.6-15.9-11.4-19.9zm-48 34.4v-44H71v7.6c-1.5-.5-3-.8-4.6-.9-.3-.2-9.8-.3-10.2-.3H33.7c-1.3 0-2.3 1-2.3 2.3 0 1.3 1 2.3 2.3 2.3h17c-2.6 1.9-4.7 4.3-6.3 7.1H33.7c-1.3 0-2.3 1-2.3 2.3 0 1.3 1 2.3 2.3 2.3h8.7c-.7 2.2-1 4.5-1 6.9v.4h-7.7c-1.3 0-2.3 1-2.3 2.3 0 1.3 1 2.3 2.3 2.3h8.2c.8 3.5 2.3 6.7 4.5 9.4H27.6zm36.6 4c-10.1 0-18.3-8.3-18.3-18.4 0-10.2 8.2-18.4 18.3-18.4 10.1 0 18.3 8.3 18.3 18.4 0 10.2-8.2 18.4-18.3 18.4z"/></g></svg>