<svg xmlns="http://www.w3.org/2000/svg" viewBox="0 0 100.7 109"><path fill="#c22253" d="M50.4 4.6c2.8 0 5.5.5 7.3 1.3.1 0 7.5 3.4 15.5 8.1 8.1 4.7 14.6 9.6 14.7 9.6 3.5 2.6 6.9 8.7 7.4 13 0 .1.9 8.3.9 17.8s-.9 17.7-.9 17.8c-.5 4.4-3.9 10.4-7.4 13-.1 0-6.6 4.9-14.7 9.6-8.1 4.7-15.4 8.1-15.5 8.1-1.8.8-4.5 1.3-7.3 1.3s-5.5-.5-7.3-1.3c-.1 0-7.5-3.4-15.5-8.1-8.1-4.7-14.6-9.6-14.7-9.6-3.5-2.6-6.9-8.7-7.4-13 0-.1-.9-8.3-.9-17.8s.9-17.7.9-17.8c.5-4.4 3.9-10.4 7.4-13 .1 0 6.6-4.9 14.7-9.6 8-4.7 15.4-8 15.5-8.1 1.8-.8 4.5-1.3 7.3-1.3m0-4.6c-3.3 0-6.7.6-9.2 1.7 0 0-7.6 3.4-16 8.4C16.8 15 10.1 20 10.1 20 5.6 23.3 1.5 30.6.9 36.3c0 0-.9 8.4-.9 18.3s.9 18.3.9 18.3c.6 5.6 4.7 12.9 9.2 16.3 0 0 6.7 5 15.1 9.9 8.4 4.9 16 8.4 16 8.4 2.5 1.1 5.9 1.7 9.2 1.7 3.3 0 6.7-.6 9.2-1.7 0 0 7.6-3.4 16-8.4 8.3-5.1 15-10.1 15-10.1 4.5-3.3 8.6-10.6 9.2-16.3 0 0 .9-8.4.9-18.3s-.9-18.3-.9-18.3c-.6-5.6-4.7-12.9-9.2-16.3 0 0-6.7-5-15.1-9.9-8.4-4.9-16-8.4-16-8.4C57 .6 53.7 0 50.4 0"/><path fill="#B3244C" d="M50.4 68.6c-.5 0-1.1-.2-1.5-.6-1.8-1.9-17.8-19-17.8-29 0-10.6 8.6-19.2 19.2-19.2S69.5 28.4 69.5 39c0 4.4-3 10.6-9 18.6-4.3 5.7-8.5 10.2-8.7 10.4-.4.4-.9.6-1.4.6zm0-44.9c-8.4 0-15.2 6.8-15.2 15.2 0 6.5 9.9 18.8 15.2 24.7 5.3-5.9 15.2-18.2 15.2-24.7 0-8.3-6.8-15.2-15.2-15.2z"/><path fill="#c22253" d="M50.4 44.9c-4.1 0-7.4-3.3-7.4-7.4 0-4.1 3.3-7.4 7.4-7.4 4.1 0 7.4 3.3 7.4 7.4 0 4.1-3.3 7.4-7.4 7.4zm0-10.8c-1.9 0-3.4 1.5-3.4 3.4s1.5 3.4 3.4 3.4 3.4-1.5 3.4-3.4-1.6-3.4-3.4-3.4zM81.7 54.9l-14-4.6c-.1 0-.2-.1-.4-.1h-.7c-.3.1-.6.2-.8.3-.2.2-.4.4-.6.7-.1.2-.2.4-.2.7v22.4l-14.7 4.1h-.1l-14.7-4.1v-22-.4c0-.2-.1-.5-.2-.7-.1-.3-.3-.5-.6-.7-.2-.2-.5-.3-.8-.3h-.7c-.1 0-.2.1-.4.1l-14 4.6c-.8.3-1.4 1-1.4 1.9v23.5c0 .6.3 1.2.8 1.6.5.4 1.2.5 1.8.3l13.4-4.4 16.1 4.5c.2 0 .4.1.5.1.2 0 .4 0 .5-.1L67 77.8l13.4 4.4c.6.2 1.3.1 1.8-.3s.8-1 .8-1.6V56.8c.1-.8-.5-1.6-1.3-1.9zm-50 19.4l-10 3.3V58.3l10-3.3v19.3zm47.4 3.3l-10-3.3V54.9l10 3.3v19.4z"/></svg>